<svg width="32" height="32" viewBox="0 0 32 32" fill="none" xmlns="http://www.w3.org/2000/svg">
<path d="M18.6049 20.0004C18.6049 20.0004 16.8233 8.87781 30.6117 8.87781C30.6117 8.87781 30.5343 14.2395 27.5132 17.0273C24.4921 19.8151 18.6049 20.0004 18.6049 20.0004Z" fill="#47B85B"/>
<path d="M30.6117 8.87781C30.6117 8.87781 30.5342 14.2466 27.5132 17.0273C24.4921 19.8079 18.6049 20.0004 18.6049 20.0004C21.2154 15.6441 24.7322 12.678 27.2653 10.8813C28.7526 9.82608 30.6117 8.87781 30.6117 8.87781Z" fill="#399349"/>
<path d="M14.5768 14.4391C14.5768 14.4391 16.3584 3.31653 2.56995 3.31653C2.56995 3.31653 2.64741 8.67819 5.66848 11.466C8.68956 14.2538 14.5768 14.4391 14.5768 14.4391Z" fill="#47B85B"/>
<path d="M14.5768 14.4391C14.5768 14.4391 8.68181 14.2466 5.66848 11.466C2.64741 8.68532 2.56995 3.31653 2.56995 3.31653C2.56995 3.31653 5.2037 4.69259 6.24946 5.36993C9.16983 7.27361 13.0353 10.3894 14.5768 14.4391Z" fill="#399349"/>
<path d="M16.9782 32L16.2036 31.9643C16.2114 31.8574 16.7923 21.3337 14.2128 14.5603C12.71 10.6032 8.92978 7.54452 6.0249 5.66937L6.46644 5.08472C9.46428 7.01691 13.3684 10.1897 14.941 14.325C17.5747 21.2268 16.986 31.893 16.9782 32Z" fill="#2B6E37"/>
<path d="M5.3075 6.7406L8.77008 6.81391L8.75227 7.52694L5.28968 7.45363L5.3075 6.7406Z" fill="#2B6E37"/>
<path d="M11.3564 7.08496L11.7094 9.45197L10.9417 9.54894L10.5888 7.18193L11.3564 7.08496Z" fill="#2B6E37"/>
<path d="M9.50598 10.7657L12.7207 10.7805L12.7168 11.4935L9.50211 11.4787L9.50598 10.7657Z" fill="#2B6E37"/>
<path d="M16.7612 23.7864L16.0873 23.437C16.769 22.3105 17.4971 21.0985 18.264 19.8222C20.9287 15.3874 24.4998 12.3573 27.0329 10.5962L27.4976 11.1666C25.0266 12.8849 21.5407 15.8438 18.9457 20.1716C18.1788 21.4478 17.4429 22.6599 16.7612 23.7864Z" fill="#2B6E37"/>
<path d="M28.4045 12.2471L28.4696 12.9579L24.7085 13.2496L24.6434 12.5387L28.4045 12.2471Z" fill="#2B6E37"/>
<path d="M22.7281 12.6599L23.0877 14.6494L22.3239 14.7664L21.9644 12.7768L22.7281 12.6599Z" fill="#2B6E37"/>
<path d="M24.9956 16.0909L25.0591 16.8018L20.9196 17.1151L20.856 16.4043L24.9956 16.0909Z" fill="#2B6E37"/>
<path d="M12.9733 14.653C11.0599 14.4034 7.53534 13.6976 5.3896 11.7154C2.29881 8.8635 2.18262 3.54461 2.18262 3.32358C2.18262 3.2309 2.22135 3.13821 2.29107 3.06691C2.36078 2.99561 2.46923 2.95996 2.56993 2.95996C7.04732 2.95996 10.3937 4.115 12.524 6.3823C15.6767 9.7476 14.9951 14.2965 14.9641 14.489L14.1972 14.382L14.5768 14.4319L14.1972 14.382C14.2049 14.3392 14.8556 9.95437 11.9353 6.83861C10.0219 4.8066 7.00859 3.74425 2.97274 3.67295C3.05795 4.90642 3.51499 8.97044 5.93959 11.2092C7.92266 13.0416 11.2691 13.7047 13.0817 13.94L12.9733 14.653Z" fill="#4D2419"/>
<path d="M18.6049 20.3569C18.4113 20.3569 18.2486 20.2285 18.2254 20.0503C18.1944 19.8578 17.505 15.3089 20.6655 11.9436C22.788 9.67628 26.1344 8.52124 30.6118 8.52124C30.7125 8.52124 30.8132 8.55689 30.8906 8.62819C30.9681 8.69949 31.0068 8.78505 30.9991 8.88486C30.9991 9.11302 30.8829 14.4248 27.7844 17.2768C24.6936 20.1287 18.8606 20.3497 18.6127 20.3569H18.6049ZM30.209 9.23423C26.1731 9.2984 23.1675 10.3679 21.2542 12.3999C18.7908 15.0166 18.8683 18.5387 18.9535 19.6154C20.2627 19.5227 24.7865 19.0307 27.2421 16.7705C29.6667 14.5389 30.1238 10.4748 30.209 9.23423Z" fill="#4D2419"/>
<path d="M16.9782 32L16.2036 31.9643C16.2114 31.8574 16.7923 21.3337 14.2128 14.5603C12.71 10.6032 8.92978 7.54452 6.0249 5.66937L6.46644 5.08472C9.46428 7.01691 13.3684 10.1897 14.941 14.325C17.5747 21.2268 16.986 31.893 16.9782 32Z" fill="#4D2419"/>
<path d="M5.3075 6.7406L8.77008 6.81391L8.75227 7.52694L5.28968 7.45363L5.3075 6.7406Z" fill="#4D2419"/>
<path d="M11.3564 7.08496L11.7094 9.45197L10.9417 9.54894L10.5888 7.18193L11.3564 7.08496Z" fill="#4D2419"/>
<path d="M9.50598 10.7657L12.7207 10.7805L12.7168 11.4935L9.50211 11.4787L9.50598 10.7657Z" fill="#4D2419"/>
<path d="M16.7612 23.7864L16.0873 23.437C16.769 22.3105 17.4971 21.0985 18.264 19.8222C20.9287 15.3874 24.4998 12.3573 27.0329 10.5962L27.4976 11.1666C25.0266 12.8849 21.5407 15.8438 18.9457 20.1716C18.1788 21.4478 17.4429 22.6599 16.7612 23.7864Z" fill="#4D2419"/>
<path d="M28.4045 12.2471L28.4696 12.9579L24.7085 13.2496L24.6434 12.5387L28.4045 12.2471Z" fill="#4D2419"/>
<path d="M22.7281 12.6599L23.0877 14.6494L22.3239 14.7664L21.9644 12.7768L22.7281 12.6599Z" fill="#4D2419"/>
<path d="M24.9956 16.0909L25.0591 16.8018L20.9196 17.1151L20.856 16.4043L24.9956 16.0909Z" fill="#4D2419"/>
</svg>